<?xml version="1.0" standalone="no"?>
<!DOCTYPE svg PUBLIC "-//W3C//DTD SVG 20010904//EN"
 "http://www.w3.org/TR/2001/REC-SVG-20010904/DTD/svg10.dtd">
<svg version="1.0" xmlns="http://www.w3.org/2000/svg"
 width="500.000000pt" height="500.000000pt" viewBox="0 0 500.000000 500.000000"
 preserveAspectRatio="xMidYMid meet">
<metadata>
Created by potrace 1.11, written by Peter Selinger 2001-2013
</metadata>
<g transform="translate(0.000000,500.000000) scale(0.100000,-0.100000)"
fill="#000000" stroke="none">
<path d="M3848 4086 c-1 -2 -40 -6 -86 -9 -90 -7 -193 -30 -260 -58 -24 -11
-48 -17 -53 -13 -5 3 -9 0 -9 -5 0 -6 -15 -17 -33 -25 -19 -7 -50 -28 -70 -46
-20 -18 -37 -30 -37 -27 0 2 -18 -13 -40 -35 -22 -22 -40 -44 -40 -48 0 -5
-10 -17 -23 -27 -13 -10 -25 -22 -28 -28 -2 -5 -7 -9 -12 -7 -4 1 -6 -1 -5 -5
2 -5 -3 -23 -11 -41 -9 -23 -19 -31 -29 -27 -11 4 -12 2 -4 -8 13 -16 -28 -94
-47 -89 -7 1 -10 -2 -6 -8 3 -6 11 -8 16 -5 5 4 9 1 9 -4 0 -6 -8 -11 -17 -12
-12 0 -13 -2 -5 -6 10 -4 10 -8 1 -19 -6 -8 -8 -14 -3 -14 4 0 -1 -7 -12 -16
-10 -8 -13 -13 -6 -9 6 3 12 1 12 -4 0 -6 -8 -11 -17 -11 -14 0 -15 -2 -4 -9
7 -5 11 -13 8 -18 -6 -9 -13 -40 -23 -98 -3 -16 -10 -34 -15 -39 -5 -6 -9 -15
-9 -20 0 -6 5 -4 11 4 9 12 10 11 4 -5 -4 -11 -9 -51 -12 -90 -2 -38 -10 -73
-16 -77 -9 -6 -9 -8 1 -8 6 0 12 -5 12 -11 0 -5 -4 -8 -9 -5 -4 3 -17 -4 -27
-17 l-19 -22 22 18 c14 12 23 15 28 8 3 -6 0 -11 -7 -11 -10 0 -10 -2 0 -8 13
-9 12 -58 -3 -81 -5 -10 -4 -12 3 -7 7 4 12 2 12 -3 0 -6 -6 -11 -12 -11 -8 0
-9 -3 -3 -8 6 -4 10 -37 10 -75 0 -56 -2 -66 -15 -62 -9 3 -7 -1 4 -10 14 -11
16 -15 5 -15 -8 0 -10 -3 -4 -8 13 -9 17 -94 4 -87 -5 4 -9 1 -9 -4 0 -6 5
-11 10 -11 6 0 10 -5 10 -11 0 -5 -5 -7 -12 -3 -7 5 -8 3 -2 -7 12 -21 13 -99
0 -99 -7 0 -7 -3 1 -8 13 -8 12 -29 -1 -51 -6 -10 -5 -12 2 -7 7 4 12 2 12 -3
0 -6 -6 -11 -12 -11 -8 0 -9 -3 -3 -8 14 -10 19 -66 6 -57 -6 3 -11 1 -11 -4
0 -6 5 -11 10 -11 6 0 10 -9 10 -20 0 -12 -5 -17 -14 -14 -8 3 -17 1 -20 -4
-3 -5 2 -9 12 -8 10 0 16 -5 14 -14 -11 -46 -11 -60 -1 -60 8 0 7 -5 -2 -16
-10 -13 -10 -17 1 -24 8 -5 11 -12 7 -16 -3 -4 -13 -2 -20 4 -10 9 -14 8 -14
-3 0 -7 5 -13 11 -12 6 1 10 -6 8 -17 -2 -13 1 -16 10 -10 10 6 10 4 -1 -9 -7
-9 -17 -15 -20 -12 -4 2 -8 -2 -8 -10 0 -12 3 -12 15 -2 13 10 14 8 8 -11 -5
-14 -3 -22 4 -22 7 0 10 -6 7 -12 -20 -50 -20 -51 -6 -44 8 4 3 -3 -11 -15
-17 -15 -19 -20 -7 -16 20 8 21 3 5 -26 -14 -25 -20 -52 -10 -42 4 4 7 12 7
17 0 6 5 13 11 15 17 6 12 -29 -6 -47 -9 -8 -10 -11 -2 -6 10 7 12 3 8 -19 -3
-16 -11 -32 -18 -37 -7 -4 -8 -8 -3 -8 6 0 16 5 23 12 15 15 15 3 1 -24 -8
-15 -8 -19 0 -13 14 8 11 -31 -3 -54 -6 -9 -5 -12 2 -7 6 4 10 -1 10 -11 -1
-10 2 -31 6 -48 7 -27 6 -28 -7 -11 -11 15 -16 16 -22 6 -5 -9 -4 -11 3 -6 7
4 12 1 12 -8 0 -9 4 -16 8 -16 13 0 10 -30 -2 -31 -6 0 -2 -4 9 -9 13 -6 15
-9 5 -9 -13 -1 -13 -2 0 -11 13 -9 13 -12 -3 -24 -16 -12 -16 -14 -2 -20 11
-4 14 -2 9 7 -4 6 -3 8 1 4 5 -4 10 -13 11 -20 8 -38 15 -70 18 -93 3 -14 10
-32 17 -40 6 -8 8 -14 4 -14 -4 0 -1 -7 6 -17 13 -15 12 -15 -8 -5 -17 9 -22
9 -26 -3 -4 -9 -1 -12 7 -9 16 6 49 -24 41 -37 -4 -5 -1 -9 6 -9 7 0 9 -10 7
-25 -3 -16 1 -30 11 -37 14 -12 14 -11 2 5 -7 9 -9 17 -3 17 12 0 23 -26 14
-34 -12 -13 -10 -37 4 -43 8 -3 12 -8 9 -12 -2 -4 3 -8 12 -8 12 0 11 5 -7 19
-12 10 -18 18 -12 18 19 0 41 -30 35 -47 -4 -10 -2 -14 4 -10 6 4 18 -3 26
-16 8 -12 28 -38 45 -57 17 -19 29 -37 26 -41 -4 -7 22 -21 41 -23 6 -1 11 -7
11 -13 3 -26 5 -28 14 -13 8 13 10 12 10 -3 0 -11 4 -15 12 -11 7 4 8 3 4 -4
-10 -16 -11 -16 -53 21 -21 17 -32 25 -26 16 10 -12 10 -18 0 -29 -10 -12 -9
-12 4 -2 19 14 30 6 22 -16 -4 -13 -3 -14 5 -4 7 11 10 11 15 -3 5 -12 11 -14
26 -5 24 12 60 2 39 -11 -7 -5 -17 -9 -23 -9 -5 0 -3 5 5 10 8 5 10 10 4 10
-6 0 -17 -6 -23 -14 -10 -12 -7 -14 25 -10 20 2 41 7 45 10 5 3 12 -2 15 -10
3 -9 10 -14 14 -11 5 3 11 1 15 -5 4 -6 12 -7 18 -4 7 4 9 4 5 -1 -12 -13 25
-35 39 -24 8 7 19 -1 37 -28 14 -21 26 -32 26 -25 0 7 5 10 12 6 7 -4 8 -3 4
5 -4 6 -12 9 -17 6 -5 -3 -6 1 -2 10 4 12 8 13 13 5 5 -7 13 -9 20 -5 9 5 11
4 6 -3 -4 -7 -2 -20 4 -29 11 -16 11 -16 6 -1 -3 10 0 20 6 24 7 4 8 3 4 -4
-4 -7 -3 -12 3 -12 5 0 13 5 16 10 4 6 13 7 23 1 9 -5 21 -9 27 -9 5 0 11 -6
13 -14 2 -8 1 -9 -5 -2 -14 18 -64 11 -74 -11 -10 -20 -10 -20 5 -1 14 17 20
16 18 -5 -1 -3 6 -6 13 -6 12 0 12 3 2 16 -10 12 -9 14 6 8 10 -4 21 -7 23 -7
3 0 2 -6 -2 -12 -6 -10 -5 -10 8 -1 8 7 18 10 22 6 3 -4 16 -8 29 -10 21 -4
21 -3 2 13 -20 16 -20 16 0 9 11 -4 26 -8 33 -8 15 0 16 -14 0 -19 -8 -3 -6
-7 5 -11 10 -4 16 -2 14 6 -1 7 7 11 21 9 12 -2 22 1 22 7 0 6 -7 8 -15 5 -8
-4 -15 -1 -15 4 0 6 -9 9 -20 7 -11 -2 -20 0 -20 4 0 10 76 8 86 -2 4 -3 12
-3 18 0 6 4 19 8 30 8 19 2 19 2 0 -13 -18 -13 -18 -14 3 -8 12 4 24 2 28 -4
3 -5 11 -10 16 -10 6 0 3 7 -6 16 -9 9 -14 19 -11 21 3 3 13 -2 22 -11 9 -10
23 -15 31 -12 8 3 23 1 33 -4 13 -7 21 -7 25 0 5 8 11 7 21 -1 12 -10 13 -9 8
4 -4 13 0 15 25 12 17 -2 31 0 31 5 0 6 7 10 15 10 8 0 15 5 15 10 0 7 -6 7
-19 1 -10 -6 -22 -7 -26 -3 -5 4 -5 1 0 -6 6 -12 3 -12 -15 -2 -12 7 -20 7
-16 2 4 -6 -4 -9 -19 -8 -13 2 -22 0 -20 -5 3 -4 1 -10 -5 -14 -6 -3 -10 3
-10 15 0 17 4 20 20 15 12 -4 20 -2 20 5 0 7 8 9 19 5 11 -3 22 -1 26 5 3 6
11 8 16 5 5 -4 15 -3 22 2 20 12 38 12 30 0 -4 -7 -9 -21 -10 -32 -2 -16 -1
-17 6 -5 5 8 8 17 5 21 -2 4 5 7 16 6 11 -1 20 -6 20 -11 0 -5 2 -7 5 -4 3 3
2 13 -1 22 -5 14 -9 15 -16 4 -8 -11 -9 -11 -6 0 2 8 7 13 12 12 5 -1 12 3 16
10 4 6 13 12 21 13 8 2 20 7 28 11 10 6 12 5 7 -2 -4 -7 -2 -12 4 -12 6 0 9
-4 6 -8 -3 -5 1 -9 9 -9 10 0 11 5 4 18 -8 15 -4 21 20 33 25 14 30 14 41 1
10 -12 10 -15 0 -15 -8 0 -11 -3 -7 -6 3 -3 11 -3 17 1 8 5 7 11 -2 22 -17 21
-15 24 22 40 40 16 41 16 34 -2 -4 -8 -1 -15 5 -15 6 0 10 5 9 12 -2 7 3 12
11 13 18 0 26 21 12 30 -6 3 -8 0 -5 -9 5 -12 -10 -15 -33 -7 -1 1 20 22 47
47 38 36 54 44 72 39 l23 -6 -23 14 c-12 7 -20 16 -16 20 4 4 13 2 19 -3 9 -8
11 -4 7 15 -2 14 0 25 7 25 5 0 8 -8 5 -17 -5 -14 -4 -15 4 -4 6 8 8 21 4 29
-4 10 -1 13 7 8 8 -5 11 -3 9 7 -2 9 6 23 17 32 11 9 13 14 5 10 -8 -4 -4 3
10 15 14 12 19 19 13 15 -7 -3 -13 -1 -13 4 0 6 5 11 10 11 6 0 9 3 8 8 -3 12
14 55 27 68 9 10 15 10 26 1 7 -7 6 -3 -3 8 -18 22 -9 53 12 40 9 -5 9 -3 0
11 -9 15 -9 26 1 49 7 17 11 34 10 39 -1 4 6 15 16 23 10 8 13 12 6 9 -7 -4
-11 1 -10 14 1 15 6 19 22 14 19 -6 19 -6 1 8 -21 16 -14 64 7 51 7 -4 6 0 -2
10 -9 11 -11 26 -5 44 4 16 7 43 6 62 -1 19 3 40 9 48 9 10 8 13 0 13 -7 0 -9
5 -6 10 4 6 12 7 18 3 8 -4 7 -1 -1 9 -18 22 -12 124 6 120 8 -1 11 2 7 8 -3
6 -11 8 -16 5 -5 -4 -9 5 -9 19 0 14 5 26 10 26 6 0 10 5 10 11 0 5 -4 7 -10
4 -6 -3 -10 5 -10 19 0 13 6 27 13 29 10 4 10 6 0 6 -10 1 -13 45 -13 187 0
176 1 186 18 173 13 -11 13 -9 -2 9 -15 17 -17 25 -8 34 7 7 12 17 12 23 0 5
-5 3 -10 -5 -8 -12 -10 -9 -10 13 0 15 6 27 13 27 9 0 9 2 1 8 -14 9 -17 169
-3 177 5 4 9 12 9 18 0 7 -4 6 -10 -3 -8 -12 -10 -11 -10 5 0 12 6 27 13 34 6
8 7 11 1 8 -7 -4 -11 16 -12 64 -1 63 1 70 16 65 15 -5 15 -5 0 8 -21 15 -25
62 -5 50 9 -6 9 -5 1 7 -7 8 -13 46 -14 84 -1 39 -2 96 -3 127 -1 32 -6 58
-11 58 -5 0 -2 8 5 17 9 11 10 14 2 9 -9 -5 -13 0 -12 16 1 25 -7 63 -15 76
-3 5 -6 25 -8 45 -1 21 -6 37 -11 37 -5 0 -7 9 -4 20 3 11 1 20 -3 20 -5 0
-12 15 -15 33 -4 17 -12 37 -17 44 -5 7 -6 18 -2 25 4 7 4 10 -1 6 -11 -10
-47 71 -38 85 3 6 1 7 -5 3 -6 -4 -16 4 -23 16 -26 50 -110 146 -166 189 -139
110 -293 160 -535 173 -42 3 -78 3 -80 2z m37 -518 c-11 -24 -12 -28 -2 -16 8
10 17 14 21 10 4 -4 6 -1 4 7 -2 8 7 15 21 17 17 3 22 0 18 -10 -6 -14 9 -16
28 -4 6 4 11 -1 11 -11 0 -9 -8 -18 -18 -18 -10 -1 -16 2 -13 7 4 6 -2 7 -11
3 -13 -5 -16 -2 -12 9 4 8 1 15 -7 15 -10 0 -11 -6 -3 -23 7 -15 18 -21 35
-19 17 2 23 -2 19 -11 -3 -7 -1 -16 5 -19 5 -4 9 -3 8 2 -3 18 2 33 11 33 5 0
8 -6 6 -12 -1 -7 -1 -10 1 -5 3 4 9 4 14 1 6 -3 5 -11 -2 -20 -7 -9 -8 -14 -1
-14 6 0 12 6 15 13 2 6 7 9 11 6 4 -3 2 -18 -4 -33 -6 -18 -6 -25 0 -21 6 3
10 13 10 21 0 8 4 13 10 9 5 -3 7 -12 3 -20 -3 -9 1 -15 11 -15 9 0 16 -5 16
-11 0 -5 -6 -7 -12 -3 -7 4 -9 3 -5 -1 4 -5 14 -10 22 -11 12 -2 12 2 5 17 -6
10 -16 19 -23 19 -7 0 -6 4 3 10 9 6 11 10 3 10 -7 0 -19 12 -27 28 -8 15 -16
25 -18 22 -1 -2 -13 2 -25 11 -13 9 -20 19 -16 22 3 4 14 -3 24 -14 9 -11 19
-19 21 -17 3 2 12 -5 22 -14 10 -10 14 -18 10 -18 -4 0 1 -6 11 -14 17 -12 24
-30 27 -63 1 -7 5 -13 10 -13 4 0 8 -5 8 -11 0 -5 -5 -7 -11 -3 -7 4 -10 1 -7
-7 3 -8 11 -13 17 -12 17 4 13 -17 -5 -24 -14 -5 -13 -8 6 -18 15 -8 19 -15
11 -19 -6 -4 -11 -13 -11 -19 0 -7 4 -6 10 3 8 13 10 12 11 -5 1 -11 1 -30 1
-42 -1 -13 4 -23 10 -23 7 0 7 -4 0 -12 -5 -7 -9 -25 -7 -41 2 -15 -1 -25 -6
-22 -5 4 -6 -1 -3 -9 3 -9 11 -13 18 -9 6 3 2 -4 -9 -17 -11 -13 -15 -20 -8
-16 15 8 13 -45 -2 -56 -6 -5 -5 -8 4 -8 9 0 11 -7 8 -23 -4 -12 -2 -29 3 -37
6 -9 3 -18 -8 -28 -9 -7 -12 -11 -7 -8 18 8 16 -43 -3 -54 -16 -11 -16 -11 1
-6 9 3 17 1 17 -4 0 -6 -6 -10 -12 -10 -7 0 -5 -5 5 -11 9 -6 15 -15 11 -21
-4 -7 -9 -6 -14 2 -5 8 -9 7 -13 -5 -4 -9 -3 -13 2 -10 5 3 12 1 16 -5 3 -5 0
-10 -7 -10 -10 0 -10 -2 1 -9 7 -5 11 -17 7 -27 -3 -11 -1 -25 4 -33 6 -10 3
-19 -8 -29 -9 -7 -12 -11 -7 -8 19 8 16 -43 -3 -54 -14 -9 -13 -10 8 -5 24 6
24 5 6 -9 -11 -9 -15 -16 -8 -16 6 0 11 -11 10 -25 -1 -14 -7 -25 -13 -25 -6
0 -6 -3 1 -8 20 -14 24 -41 6 -51 -10 -6 -12 -11 -4 -11 6 0 12 -8 12 -17 0
-15 -2 -16 -10 -3 -6 9 -10 10 -10 3 0 -6 5 -15 10 -18 16 -10 12 -43 -7 -55
-17 -11 -17 -11 0 -6 9 3 17 1 17 -4 0 -6 -6 -10 -12 -10 -10 0 -10 -2 -1 -8
14 -9 13 -52 -2 -52 -6 0 -5 -3 2 -8 19 -12 19 -40 -2 -57 -17 -14 -17 -16 -2
-11 9 3 17 3 17 -1 0 -3 -8 -12 -17 -19 -17 -13 -17 -14 1 -7 13 4 17 2 14 -8
-3 -8 -10 -14 -15 -14 -6 0 -15 -3 -19 -7 -3 -4 3 -6 15 -3 23 4 27 -5 9 -23
-9 -9 -9 -15 0 -24 17 -17 15 -45 -5 -58 -17 -11 -17 -11 0 -6 9 3 17 1 17 -4
0 -6 -6 -10 -12 -10 -7 0 -5 -5 5 -11 9 -6 15 -15 11 -21 -4 -7 -9 -6 -14 2
-5 8 -9 7 -13 -5 -4 -9 -3 -13 2 -10 5 3 12 1 16 -5 3 -5 0 -10 -7 -10 -9 0
-9 -3 2 -10 13 -8 13 -13 2 -31 -9 -14 -10 -19 -2 -14 9 5 10 1 5 -15 -6 -17
-4 -21 6 -14 11 6 12 5 3 -7 -6 -8 -10 -59 -9 -122 1 -83 -2 -107 -12 -103 -9
4 -10 0 -1 -19 6 -13 7 -32 3 -42 -4 -10 -10 -25 -12 -33 -2 -8 -5 -22 -8 -30
-2 -8 -4 -21 -4 -27 -1 -7 -6 -13 -12 -13 -5 0 -7 6 -3 13 4 6 3 8 -1 4 -13
-11 -15 -38 -3 -31 5 3 4 -3 -3 -14 -7 -12 -17 -18 -23 -15 -5 4 -7 -1 -3 -10
7 -17 -15 -41 -28 -29 -5 4 -5 2 -1 -5 7 -13 -32 -45 -46 -37 -4 3 -8 1 -8 -5
0 -19 -97 -29 -167 -17 -43 7 -99 46 -129 89 -32 48 -57 114 -50 132 3 9 2 13
-4 10 -14 -9 -12 8 3 24 10 11 10 13 0 7 -8 -4 -13 -2 -14 6 -1 7 -3 27 -5 43
-2 20 2 35 14 44 16 13 16 13 0 8 -10 -3 -20 -2 -23 3 -4 6 0 10 7 11 10 0 10
2 1 6 -9 3 -10 10 -3 23 6 10 7 21 2 24 -9 6 -8 48 2 64 4 7 3 12 -1 12 -5 0
-9 9 -10 20 -1 12 3 18 9 14 6 -4 5 3 -2 16 -8 15 -8 20 -1 16 6 -4 11 -3 11
3 0 5 -6 12 -12 14 -10 4 -9 8 2 16 10 7 11 14 5 19 -12 8 -13 92 -2 109 4 7
4 14 -1 17 -9 6 -8 47 2 64 4 7 3 12 -1 12 -5 0 -9 9 -10 20 -1 12 3 18 9 14
6 -4 5 3 -2 16 -8 15 -8 20 -1 16 6 -4 11 -3 11 3 0 5 -6 12 -12 14 -10 4 -9
8 2 16 10 7 11 14 5 19 -12 8 -13 92 -1 110 4 7 3 12 -3 12 -9 0 -7 52 4 69 3
5 -1 12 -7 14 -10 4 -9 8 2 16 12 9 13 13 2 20 -8 4 -14 12 -14 16 0 4 6 12
14 16 9 6 9 9 1 9 -11 0 -10 50 2 69 3 5 -1 12 -7 14 -10 4 -9 8 2 16 9 7 11
14 5 19 -14 10 -16 28 -5 56 6 17 5 26 -3 30 -9 3 -8 7 3 15 10 7 11 11 3 11
-9 0 -10 7 -3 24 6 17 5 26 -3 30 -9 5 -9 7 1 12 6 3 12 10 12 15 0 6 -3 8 -8
6 -4 -3 -6 23 -4 56 1 34 4 121 6 192 2 72 6 140 9 153 13 52 20 68 41 92 13
16 15 20 4 11 -14 -10 -18 -10 -18 -1 0 6 9 14 20 17 11 3 20 9 20 14 0 5 -8
5 -17 2 -16 -6 -16 -5 -4 11 14 17 15 17 28 0 15 -21 17 -11 3 16 -8 15 -3 24
27 49 39 32 53 38 53 21 0 -5 -3 -9 -7 -8 -12 4 -54 -28 -46 -35 3 -4 11 -7
16 -7 6 0 7 3 4 7 -4 3 -2 13 5 20 10 12 14 11 28 -7 13 -17 17 -18 17 -6 0 9
-4 16 -9 16 -5 0 -3 10 3 23 16 31 15 30 39 17 18 -10 25 -9 38 4 23 23 24 20
7 -16z m285 -1402 c0 -3 -4 -8 -10 -11 -5 -3 -10 -1 -10 4 0 6 5 11 10 11 6 0
10 -2 10 -4z m-424 -1285 c0 -11 -4 -17 -8 -15 -4 3 -8 12 -8 20 0 8 4 14 8
14 4 0 8 -9 8 -19z m291 4 c0 -8 -4 -12 -9 -9 -5 3 -6 10 -3 15 9 13 12 11 12
-6z m-27 -7 c0 -4 -4 -8 -9 -8 -6 0 -12 4 -15 8 -3 5 1 9 9 9 8 0 15 -4 15 -9z"/>
<path d="M3814 3569 c-10 -16 12 -32 30 -22 14 7 13 10 -4 21 -13 8 -21 8 -26
1z m21 -9 c3 -5 1 -10 -4 -10 -6 0 -11 5 -11 10 0 6 2 10 4 10 3 0 8 -4 11
-10z"/>
<path d="M3896 3542 c-3 -5 1 -9 9 -9 8 0 12 4 9 9 -3 4 -7 8 -9 8 -2 0 -6 -4
-9 -8z"/>
<path d="M3722 3496 c7 -8 15 -12 17 -11 5 6 -10 25 -20 25 -5 0 -4 -6 3 -14z"/>
<path d="M3650 3339 c0 -5 5 -7 10 -4 6 3 10 8 10 11 0 2 -4 4 -10 4 -5 0 -10
-5 -10 -11z"/>
<path d="M4114 3276 c1 -8 5 -18 8 -22 4 -3 5 1 4 10 -1 8 -5 18 -8 22 -4 3
-5 -1 -4 -10z"/>
<path d="M3631 3244 c0 -11 3 -14 6 -6 3 7 2 16 -1 19 -3 4 -6 -2 -5 -13z"/>
<path d="M4130 3219 c0 -5 5 -7 10 -4 6 3 10 8 10 11 0 2 -4 4 -10 4 -5 0 -10
-5 -10 -11z"/>
<path d="M4130 2980 c0 -5 5 -10 11 -10 5 0 7 5 4 10 -3 6 -8 10 -11 10 -2 0
-4 -4 -4 -10z"/>
<path d="M4130 2920 c0 -5 5 -10 11 -10 5 0 7 5 4 10 -3 6 -8 10 -11 10 -2 0
-4 -4 -4 -10z"/>
<path d="M4130 2740 c0 -5 5 -10 11 -10 5 0 7 5 4 10 -3 6 -8 10 -11 10 -2 0
-4 -4 -4 -10z"/>
<path d="M4130 2680 c0 -5 5 -10 11 -10 5 0 7 5 4 10 -3 6 -8 10 -11 10 -2 0
-4 -4 -4 -10z"/>
<path d="M4136 2593 c-6 -14 -5 -15 5 -6 7 7 10 15 7 18 -3 3 -9 -2 -12 -12z"/>
<path d="M4140 2541 c0 -6 4 -13 10 -16 6 -3 7 1 4 9 -7 18 -14 21 -14 7z"/>
<path d="M4133 2445 c0 -8 4 -15 9 -15 4 0 8 4 8 9 0 6 -4 12 -8 15 -5 3 -9
-1 -9 -9z"/>
<path d="M4136 2353 c-6 -14 -5 -15 5 -6 7 7 10 15 7 18 -3 3 -9 -2 -12 -12z"/>
<path d="M4140 2301 c0 -6 4 -13 10 -16 6 -3 7 1 4 9 -7 18 -14 21 -14 7z"/>
<path d="M4135 2120 c-3 -5 -1 -10 4 -10 6 0 11 5 11 10 0 6 -2 10 -4 10 -3 0
-8 -4 -11 -10z"/>
<path d="M4130 1820 c0 -5 5 -10 11 -10 5 0 7 5 4 10 -3 6 -8 10 -11 10 -2 0
-4 -4 -4 -10z"/>
<path d="M4130 1740 c0 -5 5 -10 11 -10 5 0 7 5 4 10 -3 6 -8 10 -11 10 -2 0
-4 -4 -4 -10z"/>
<path d="M4109 1643 c-13 -17 -13 -17 6 -3 11 8 22 16 24 17 2 2 0 3 -6 3 -6
0 -17 -8 -24 -17z"/>
<path d="M466 4043 c-4 -4 -31 -6 -61 -5 l-55 1 0 -49 c0 -33 -4 -50 -12 -50
-8 0 -9 -3 -3 -8 13 -9 18 -32 7 -32 -4 0 -12 3 -18 8 -5 4 -1 -1 9 -10 14
-13 15 -18 6 -18 -9 0 -10 -3 -4 -8 15 -10 16 -85 2 -94 -8 -5 -8 -8 3 -8 13
0 13 -1 0 -10 -8 -5 -10 -10 -5 -10 15 0 17 -90 2 -90 -7 0 -6 -4 3 -10 13 -9
13 -10 0 -10 -9 0 -11 -3 -5 -8 15 -10 17 -92 2 -92 -7 0 -6 -4 3 -10 13 -9
13 -10 0 -10 -9 0 -11 -3 -5 -8 15 -10 16 -85 2 -94 -8 -5 -8 -8 -1 -8 13 0
13 -307 0 -328 -4 -6 -3 -12 1 -12 5 0 9 -20 10 -45 0 -25 -3 -42 -8 -39 -5 3
-9 0 -9 -5 0 -6 6 -11 13 -11 8 0 7 -4 -3 -10 -8 -5 -10 -10 -3 -10 7 0 11
-17 11 -45 -1 -24 -5 -42 -10 -39 -4 3 -8 0 -8 -5 0 -6 6 -11 13 -11 8 0 7 -4
-3 -10 -10 -7 -11 -10 -2 -10 14 0 12 -56 -3 -79 -5 -10 -4 -12 3 -7 7 4 12 2
12 -3 0 -6 -6 -11 -12 -11 -8 0 -9 -3 -3 -8 14 -10 19 -66 6 -57 -6 3 -11 1
-11 -4 0 -6 6 -11 13 -11 8 0 7 -4 -3 -10 -8 -5 -10 -10 -3 -10 7 0 11 -17 11
-45 -1 -24 -5 -42 -10 -39 -4 3 -8 0 -8 -5 0 -6 6 -11 13 -11 8 0 7 -4 -3 -10
-8 -5 -10 -10 -5 -10 7 0 10 -81 11 -229 0 -126 -4 -227 -9 -224 -5 3 -6 12
-2 22 5 13 4 13 -6 4 -10 -10 -10 -16 2 -30 16 -20 18 -41 6 -60 -5 -8 -3 -13
3 -13 12 0 -5 -39 -24 -53 -6 -5 -2 -6 10 -2 28 7 27 -22 -1 -49 -20 -18 -20
-18 2 -12 18 6 22 4 17 -8 -3 -8 -13 -13 -22 -10 -12 4 -11 2 3 -7 19 -12 19
-12 0 -20 -19 -7 -18 -8 3 -8 12 -1 22 -5 22 -10 0 -6 -10 -17 -22 -27 -17
-12 -18 -15 -5 -10 15 5 17 2 12 -14 -4 -12 -2 -20 5 -20 7 0 9 -7 6 -15 -3
-8 -9 -22 -13 -32 -5 -12 -3 -14 8 -8 12 8 12 6 0 -8 -11 -14 -17 -15 -30 -5
-14 12 -14 11 -2 -4 7 -10 18 -15 23 -12 6 4 8 -2 3 -15 -4 -13 -2 -21 5 -21
7 0 9 -7 6 -15 -3 -8 -9 -22 -13 -32 -5 -12 -3 -14 8 -8 12 8 12 6 0 -8 -7 -9
-17 -15 -20 -12 -4 2 -8 -2 -8 -10 0 -12 3 -12 15 -2 13 10 14 8 8 -11 -5 -14
-3 -22 5 -22 7 0 2 -9 -11 -20 -13 -11 -19 -20 -14 -20 6 0 15 5 22 12 9 9 12
9 12 1 0 -7 -5 -15 -10 -18 -6 -4 -8 -10 -5 -15 3 -5 1 -12 -5 -15 -8 -5 -7
-11 1 -21 10 -12 6 -17 -11 -16 -3 0 -6 -8 -6 -19 0 -18 2 -18 12 -5 12 17 29
22 19 6 -3 -5 -8 -20 -10 -32 -3 -12 -10 -25 -17 -30 -7 -4 -8 -8 -3 -8 6 0
16 5 23 12 9 9 12 9 12 1 0 -7 -5 -15 -10 -18 -6 -4 -8 -10 -5 -15 3 -5 1 -12
-5 -15 -8 -5 -7 -11 1 -21 10 -12 6 -17 -11 -16 -3 0 -6 -8 -6 -19 0 -18 2
-18 12 -5 17 24 26 19 13 -6 -15 -27 -15 -28 3 -40 9 -7 7 -9 -8 -5 -13 3 -21
-1 -21 -9 0 -7 4 -11 9 -8 16 10 30 -7 17 -22 -6 -7 -16 -11 -22 -7 -6 3 -7 1
-3 -6 4 -6 12 -8 18 -5 8 5 9 1 4 -11 -4 -10 -2 -21 5 -25 8 -6 8 -13 -1 -30
-10 -18 -9 -24 1 -31 8 -5 10 -9 6 -9 -5 0 0 -13 9 -30 11 -17 21 -25 25 -19
4 7 12 5 23 -6 9 -9 16 -12 16 -6 0 10 -39 35 -50 34 -3 -1 -7 0 -9 2 -2 2 9
2 24 -1 19 -3 24 -1 19 7 -4 8 -3 9 5 5 6 -4 9 -12 6 -17 -8 -12 2 -12 25 1
13 7 21 7 25 0 3 -5 11 -10 16 -10 6 0 8 4 5 8 -3 5 1 9 9 9 8 0 12 -4 9 -9
-3 -4 2 -8 11 -8 9 0 14 4 11 8 -3 5 1 9 9 9 8 0 12 -4 9 -9 -3 -4 -1 -8 5 -8
5 0 12 4 15 9 3 5 16 7 28 3 16 -4 19 -2 13 8 -5 9 -4 11 4 6 6 -4 9 -12 6
-17 -4 -5 -2 -9 4 -9 5 0 12 4 15 8 6 10 94 7 120 -4 14 -5 17 -4 11 5 -6 10
-3 11 13 2 24 -13 35 -14 28 -3 -2 4 4 8 14 8 10 0 16 -4 14 -8 -3 -4 0 -8 6
-8 6 0 8 -4 5 -10 -3 -6 1 -7 9 -4 10 4 16 1 16 -7 0 -11 2 -11 9 1 12 18 5
31 -14 23 -8 -3 -15 -1 -15 3 0 5 25 10 55 10 31 1 58 4 61 7 4 3 6 81 5 172
-1 117 2 164 10 160 6 -4 5 2 -3 14 -10 17 -10 25 0 41 7 11 8 20 3 20 -10 0
-7 53 4 69 3 5 -1 12 -7 14 -10 4 -9 8 2 16 10 7 11 11 3 11 -9 0 -10 7 -3 24
6 17 5 26 -3 30 -9 3 -8 7 3 15 9 7 11 14 5 18 -14 11 -16 29 -5 57 6 17 5 26
-3 30 -9 3 -8 7 3 15 9 7 11 14 5 19 -14 10 -16 28 -5 56 6 17 5 26 -3 30 -9
3 -8 7 3 15 10 7 11 11 3 11 -9 0 -10 7 -3 24 6 17 5 26 -3 30 -9 3 -8 7 3 15
9 7 11 14 5 19 -14 10 -16 28 -5 56 6 17 5 26 -3 30 -9 3 -8 7 3 15 9 7 11 14
5 19 -16 11 -17 34 -3 44 10 6 10 10 -2 18 -13 9 -13 10 0 10 13 0 13 1 0 10
-13 8 -12 11 5 25 11 8 16 14 10 13 -10 -3 -15 4 -15 23 0 5 6 7 13 4 6 -4 3
1 -8 10 -17 14 -18 17 -5 25 12 8 13 11 1 19 -11 7 -11 9 0 14 12 5 12 6 0 6
-11 1 -11 4 0 18 12 15 12 16 -1 8 -12 -6 -13 -5 -3 5 8 9 9 19 2 32 -5 10 -6
18 -1 18 5 0 9 7 9 15 0 8 -5 15 -11 15 -5 0 -1 6 10 14 10 8 21 12 24 10 2
-3 -2 -9 -10 -14 -11 -7 -11 -10 -2 -10 7 0 15 7 19 15 5 14 8 14 26 -2 20
-17 20 -17 14 2 -7 19 -7 19 8 1 8 -10 12 -23 8 -29 -3 -5 1 -13 8 -18 12 -7
11 -9 -1 -9 -13 0 -13 -1 0 -11 12 -8 10 -9 -7 -4 -14 4 -23 2 -23 -4 0 -6 3
-10 8 -10 21 4 39 -2 40 -13 0 -7 4 -24 7 -38 5 -19 4 -22 -4 -10 -9 12 -11
12 -11 1 0 -8 8 -20 18 -28 10 -9 11 -11 2 -7 -11 5 -10 2 3 -13 11 -12 15
-27 11 -38 -5 -11 -3 -16 2 -12 5 3 11 -2 12 -11 2 -24 10 -67 12 -69 2 -2 3
-6 4 -10 1 -5 5 -14 9 -20 5 -8 4 -13 -2 -13 -10 0 -15 14 -12 33 1 5 -3 6 -9
2 -10 -6 4 -44 22 -56 18 -12 23 -59 15 -141 -2 -21 -1 -35 4 -33 13 9 40 -7
35 -20 -2 -7 1 -19 7 -26 10 -11 9 -11 -5 0 -22 16 -24 8 -4 -12 8 -8 17 -27
20 -43 2 -16 5 -29 6 -29 2 0 4 -9 5 -20 2 -11 6 -29 11 -39 6 -15 4 -17 -6
-11 -8 5 -11 4 -6 -3 3 -5 1 -12 -6 -14 -7 -3 -5 -7 6 -11 10 -4 15 -3 11 3
-3 6 -2 10 4 10 5 0 10 -8 9 -17 0 -10 3 -29 7 -43 3 -14 7 -30 9 -37 1 -7 5
-16 9 -19 11 -11 8 -21 -10 -40 -16 -16 -16 -16 4 -10 22 7 23 1 10 -34 -8
-21 -5 -50 5 -50 4 0 7 -3 7 -7 -3 -19 2 -33 12 -33 6 0 7 5 2 13 -4 6 -8 17
-10 22 -1 6 -5 21 -9 35 -4 15 -3 22 2 17 5 -5 9 -12 10 -15 0 -4 4 -14 8 -23
4 -9 8 -29 10 -45 2 -16 5 -29 6 -29 3 0 10 -37 13 -62 1 -13 5 -23 8 -23 3 0
6 -6 7 -12 2 -25 10 -63 21 -97 6 -19 9 -36 7 -39 -2 -2 2 -14 9 -28 7 -13 11
-35 9 -49 -1 -14 2 -25 8 -25 6 0 8 6 5 13 -3 9 6 13 33 12 21 0 36 -3 33 -7
-2 -5 3 -8 12 -8 9 0 14 4 11 8 -3 5 1 9 8 9 9 0 13 -9 10 -26 l-4 -26 14 24
c7 14 21 26 30 27 9 1 14 -2 10 -7 -3 -5 -9 -7 -13 -5 -4 3 -8 -1 -8 -8 0 -8
7 -12 15 -8 11 4 13 2 7 -9 -7 -11 -6 -12 7 -2 8 7 19 9 23 5 5 -4 5 -1 1 6
-4 7 -13 9 -19 5 -7 -4 -6 0 2 10 14 17 26 24 17 9 -3 -5 8 -9 24 -9 16 0 27
3 25 6 -5 9 72 7 81 -2 4 -4 14 -1 23 6 14 10 14 10 4 -4 -13 -16 -49 -19 -70
-6 -8 5 -13 3 -13 -3 0 -6 -5 -8 -12 -4 -8 5 -8 1 2 -12 22 -29 24 -30 17 -11
-7 19 9 24 16 5 4 -9 6 -8 7 2 0 10 6 6 16 -10 11 -19 14 -20 9 -5 -4 16 0 21
15 22 11 1 22 -2 25 -8 4 -5 12 -9 18 -9 7 0 6 4 -3 10 -13 8 -12 10 3 10 9 0
17 -6 17 -12 0 -9 3 -8 10 2 10 16 11 15 29 -15 11 -19 11 -19 9 -1 -2 10 3
21 11 24 9 3 11 0 6 -8 -5 -9 -4 -11 3 -6 7 4 12 1 12 -6 0 -8 4 -6 11 4 9 17
11 17 37 0 14 -9 23 -12 19 -5 -4 6 -3 14 3 18 5 3 10 0 10 -7 0 -7 8 -1 17
14 16 25 18 25 42 11 25 -15 25 -14 6 2 -20 17 -20 17 3 12 27 -6 27 -6 -3 82
-13 41 -22 77 -20 81 3 5 2 10 -2 12 -8 3 -70 179 -75 213 -2 11 -6 23 -10 26
-5 3 -9 17 -10 32 -1 15 -5 27 -8 27 -5 0 -27 65 -34 101 -2 8 -8 27 -14 42
-7 15 -15 40 -18 55 -4 15 -11 32 -15 38 -5 6 -10 27 -11 46 -2 20 -6 34 -10
31 -7 -4 -12 22 -11 55 1 7 -2 11 -5 8 -5 -6 -49 121 -54 159 -2 11 -7 23 -11
26 -5 3 -9 22 -10 41 -1 20 -5 34 -8 32 -10 -6 -21 45 -13 58 4 6 3 8 -3 5
-15 -9 -24 34 -11 50 8 10 7 12 -3 8 -14 -5 -33 47 -61 165 -1 8 -6 17 -9 20
-4 3 -10 23 -13 44 -7 41 1 46 9 6 5 -28 18 -43 13 -15 -1 11 3 20 10 21 6 1
14 2 17 3 3 0 1 10 -5 21 -6 11 -7 20 -3 19 24 -4 53 2 53 12 0 5 -6 7 -12 3
-8 -4 -10 -3 -5 2 9 9 13 10 43 13 8 0 13 5 10 10 -3 5 11 21 31 37 20 15 33
22 29 16 -4 -7 -2 -12 5 -12 7 0 9 8 6 21 -4 16 -3 18 8 9 10 -8 15 -8 21 1 5
8 3 9 -7 3 -11 -6 -10 -2 2 16 17 26 48 43 34 19 -5 -8 -4 -10 0 -6 14 12 15
38 2 31 -7 -4 -7 -1 1 7 11 12 14 12 22 -1 7 -12 9 -10 7 7 0 12 -6 19 -12 16
-5 -3 0 4 13 16 12 12 22 28 22 36 0 8 5 15 11 15 5 0 7 4 4 10 -10 17 15 52
33 46 13 -5 12 -2 -2 9 -13 10 -15 15 -6 15 7 0 11 2 8 6 -3 3 2 36 12 74 10
38 15 71 12 74 -3 4 -1 6 4 6 5 0 10 17 10 38 1 20 2 98 3 172 2 74 2 137 1
140 -1 3 -3 19 -5 35 -9 66 -13 91 -19 106 -4 9 -8 27 -10 40 -4 46 -85 195
-132 248 -164 183 -418 269 -804 275 -80 1 -150 5 -156 9 -6 3 -14 3 -18 0
-10 -10 -106 -10 -106 0 0 5 -5 5 -11 2 -13 -9 -253 -10 -266 -2 -6 4 -13 3
-17 0z m664 -486 c0 -5 -7 -6 -16 -3 -8 3 -13 2 -10 -2 3 -5 -1 -9 -9 -9 -8 0
-11 5 -8 11 3 6 3 8 -1 4 -4 -3 -8 -10 -8 -15 0 -4 -5 -15 -11 -23 -6 -8 -2
-6 11 4 17 15 22 16 23 5 0 -10 2 -11 6 -1 2 6 9 12 14 12 6 0 8 -4 4 -9 -3
-5 -1 -13 5 -16 6 -4 9 -1 8 6 -2 7 4 13 12 14 9 0 14 8 12 20 -2 18 -2 19 8
2 6 -9 9 -21 5 -26 -3 -5 0 -13 7 -17 7 -4 10 -3 5 1 -4 5 7 15 25 22 30 13
34 12 67 -15 20 -16 36 -35 36 -43 0 -8 6 -18 13 -22 8 -5 9 -14 3 -24 -10
-18 -3 -53 11 -53 5 0 4 8 -2 19 -7 13 -7 22 0 26 5 3 11 -3 11 -14 1 -12 2
-27 3 -33 1 -7 -2 -19 -7 -26 -7 -9 -6 -17 2 -25 10 -9 11 -8 6 6 -4 9 -3 17
2 17 11 0 12 -11 15 -82 0 -27 5 -48 9 -48 5 0 4 -12 -1 -26 -13 -33 -13 -37
2 -28 7 4 8 3 4 -5 -6 -9 -11 -9 -21 -1 -9 8 -15 8 -20 0 -4 -6 -1 -9 7 -8 7
2 12 -2 11 -9 -2 -8 4 -10 15 -6 13 5 14 3 5 -7 -6 -7 -9 -19 -6 -28 5 -11 2
-13 -6 -7 -10 6 -11 3 -1 -15 10 -19 8 -26 -12 -48 -15 -17 -16 -21 -4 -12 17
14 18 13 13 -5 -3 -11 -9 -32 -13 -47 -3 -16 -11 -25 -17 -21 -6 3 -7 1 -3 -6
9 -14 -12 -81 -25 -81 -6 0 -7 -5 -4 -10 3 -6 -3 -14 -15 -18 -12 -4 -20 -12
-19 -17 1 -6 -15 -20 -35 -31 -32 -18 -55 -21 -145 -22 l-108 -1 -2 71 c-1 45
3 76 11 86 11 13 11 14 0 8 -10 -6 -12 11 -10 81 1 48 -1 94 -5 101 -5 6 -5
12 0 12 10 0 9 132 -1 148 -4 7 -4 12 1 12 4 0 7 50 6 112 -2 71 2 117 9 125
9 11 13 12 20 1 5 -9 7 -6 5 9 -2 12 -7 26 -12 30 -4 5 -5 2 -1 -4 5 -9 2 -11
-9 -6 -10 3 -12 8 -6 12 15 10 141 8 141 -2z m23 0 c3 -8 -1 -14 -8 -14 -7 0
-11 6 -8 14 3 7 6 13 8 13 2 0 5 -6 8 -13z m60 3 c3 6 4 5 3 -2 -4 -19 -23
-20 -30 -2 -5 14 -4 15 8 5 10 -8 16 -9 19 -1z m-213 -24 c0 -3 -4 -8 -10 -11
-5 -3 -10 -1 -10 4 0 6 5 11 10 11 6 0 10 -2 10 -4z m644 -1094 c3 -5 -1 -9
-9 -9 -8 0 -15 4 -15 9 0 4 4 8 9 8 6 0 12 -4 15 -8z m-447 -594 c0 -7 4 -21
8 -31 5 -13 3 -16 -7 -12 -12 5 -17 37 -9 53 3 6 8 1 8 -10z m623 -894 c0 -2
-9 -8 -20 -14 -15 -8 -18 -8 -14 3 4 11 34 21 34 11z m73 -6 c-6 -11 5 -10 28
2 11 6 19 7 18 3 -3 -18 2 -27 9 -16 8 13 37 21 40 11 1 -5 -1 -8 -5 -9 -5 0
-14 -5 -20 -11 -9 -7 -17 -7 -27 1 -10 9 -16 9 -21 1 -4 -7 -11 -8 -18 -2 -7
5 -26 9 -44 7 -19 -1 -29 2 -27 9 3 7 20 11 38 11 19 0 32 -3 29 -7z"/>
<path d="M1027 3543 c3 -7 11 -13 18 -13 7 0 15 6 18 13 3 8 -3 13 -18 13 -15
0 -21 -5 -18 -13z"/>
<path d="M1220 3525 c-8 -10 -9 -15 -1 -15 6 0 11 5 11 10 0 6 5 10 11 10 5 0
7 -5 4 -10 -3 -6 1 -13 10 -16 12 -5 13 -9 5 -14 -9 -5 -9 -9 -1 -14 6 -4 11
-2 11 5 0 8 4 8 15 -1 23 -19 31 -3 11 19 -10 11 -24 17 -32 14 -9 -3 -14 0
-12 7 5 19 -17 23 -32 5z m71 -32 c13 -16 12 -17 -3 -4 -17 13 -22 21 -14 21
2 0 10 -8 17 -17z"/>
<path d="M1033 3505 c0 -8 4 -12 9 -9 5 3 6 10 3 15 -9 13 -12 11 -12 -6z"/>
<path d="M993 3485 c0 -8 4 -15 9 -15 4 0 8 4 8 9 0 6 -4 12 -8 15 -5 3 -9 -1
-9 -9z"/>
<path d="M1307 3445 c3 -8 9 -12 14 -9 12 7 11 11 -5 17 -10 4 -13 1 -9 -8z"/>
<path d="M1290 3420 c0 -5 5 -10 11 -10 5 0 7 5 4 10 -3 6 -8 10 -11 10 -2 0
-4 -4 -4 -10z"/>
<path d="M1334 3303 c3 -4 -2 -16 -11 -27 -15 -18 -14 -18 8 2 14 12 27 21 30
20 2 -2 3 -1 1 1 -1 3 -10 6 -18 7 -9 1 -13 0 -10 -3z"/>
<path d="M1355 3200 c-3 -5 -1 -10 4 -10 6 0 11 5 11 10 0 6 -2 10 -4 10 -3 0
-8 -4 -11 -10z"/>
<path d="M1347 3059 c7 -7 15 -10 18 -7 3 3 -2 9 -12 12 -14 6 -15 5 -6 -5z"/>
<path d="M1336 2983 c-6 -14 -5 -15 5 -6 7 7 10 15 7 18 -3 3 -9 -2 -12 -12z"/>
<path d="M2180 4013 c-1 -10 -1 -71 -2 -136 -1 -85 -5 -117 -13 -113 -6 2 -12
-2 -12 -9 0 -7 6 -11 14 -8 10 4 12 -11 11 -71 -2 -50 -7 -75 -14 -72 -6 2
-11 -2 -11 -9 0 -7 6 -11 14 -8 7 3 13 -2 13 -12 0 -9 -4 -14 -9 -10 -5 3 -13
1 -16 -5 -4 -6 -1 -9 5 -8 15 4 22 -29 9 -38 -5 -3 -9 -11 -9 -17 0 -7 4 -6
10 3 9 13 10 13 10 -1 0 -8 -6 -21 -12 -28 -8 -8 -8 -11 -2 -8 7 4 14 -2 17
-13 3 -11 1 -20 -4 -20 -5 0 -6 -12 -3 -26 6 -22 4 -25 -7 -19 -12 7 -12 6 -1
-7 10 -13 10 -17 0 -21 -10 -4 -10 -6 0 -6 6 -1 12 -8 12 -17 0 -8 -4 -13 -9
-9 -5 3 -13 1 -16 -5 -4 -6 -1 -9 6 -8 16 4 21 -62 6 -81 -8 -10 -8 -13 -1 -8
16 10 24 -26 9 -40 -7 -7 -16 -9 -21 -5 -4 4 -4 1 0 -6 4 -7 12 -10 17 -7 5 4
9 -1 9 -10 0 -10 -5 -13 -12 -9 -8 5 -7 0 2 -11 13 -17 13 -18 -1 -13 -9 4
-16 1 -16 -7 0 -7 6 -11 14 -8 10 4 13 -6 12 -46 -2 -45 -4 -49 -18 -39 -15
12 -15 11 0 -7 17 -22 23 -92 8 -101 -5 -3 -9 -11 -9 -17 0 -8 3 -8 9 1 5 8 8
-36 7 -105 -1 -65 -6 -124 -10 -132 -6 -9 -5 -12 1 -8 6 4 9 -38 9 -114 0 -84
-4 -118 -12 -115 -6 2 -11 -2 -11 -9 0 -7 6 -11 12 -9 8 4 11 -17 11 -71 -1
-50 -5 -74 -12 -71 -6 2 -11 -2 -11 -9 0 -7 5 -11 12 -9 8 3 11 -46 11 -180 0
-101 -3 -183 -6 -181 -3 2 -7 -6 -7 -18 -2 -18 0 -19 8 -7 8 12 9 9 7 -10 -2
-14 -10 -28 -18 -32 -13 -6 -12 -7 2 -7 13 -1 16 -10 14 -49 -2 -27 -6 -54
-11 -62 -5 -8 -4 -11 2 -7 6 4 9 -38 9 -114 0 -84 -4 -118 -12 -115 -6 2 -11
-2 -11 -9 0 -7 6 -11 12 -8 14 5 15 -54 2 -74 -4 -6 -3 -14 2 -17 10 -7 9
-126 -2 -143 -4 -6 -4 -14 1 -17 5 -3 8 -58 8 -122 -1 -101 1 -118 16 -122 12
-3 15 -11 12 -30 -3 -15 -2 -24 1 -20 4 3 8 14 10 25 2 10 4 20 4 22 1 2 12
-8 25 -22 22 -24 24 -24 29 -7 3 12 0 17 -8 14 -7 -3 -16 -1 -19 4 -3 5 6 9
19 10 21 0 24 -4 20 -25 -4 -24 -3 -24 14 -8 13 11 21 13 26 6 3 -6 1 -11 -4
-11 -6 0 -11 -5 -11 -12 0 -6 11 -1 24 11 23 22 25 22 36 4 10 -16 11 -16 6 0
-3 9 -1 17 5 17 6 0 8 4 5 8 -2 4 11 8 30 9 19 0 34 -4 34 -10 0 -6 -3 -7 -6
-4 -4 3 -16 2 -27 -4 -15 -9 -18 -8 -12 3 5 7 4 9 0 5 -5 -4 -10 -14 -11 -23
-2 -14 0 -14 21 0 22 15 25 14 34 -2 10 -16 11 -14 15 20 1 14 146 22 146 8 0
-5 -15 -7 -34 -4 -19 2 -38 -1 -41 -6 -4 -6 -11 -8 -16 -5 -5 4 -9 2 -9 -3 0
-11 30 -25 38 -17 3 3 0 5 -7 5 -7 0 -9 5 -6 10 5 8 11 7 21 -1 11 -9 17 -9
28 0 11 10 17 8 25 -6 10 -17 11 -15 15 20 0 6 11 13 23 13 12 1 20 -3 17 -7
-3 -5 2 -9 11 -9 9 0 14 4 11 8 -5 9 79 10 89 1 3 -4 -1 -6 -11 -5 -9 0 -18
-5 -20 -12 -1 -7 0 -8 3 -2 7 15 23 12 23 -4 0 -8 4 -17 8 -20 5 -3 7 11 5 30
-2 32 -1 35 14 22 12 -9 15 -9 9 0 -4 6 -4 12 1 12 4 0 6 37 5 81 -3 60 0 84
10 90 10 7 10 9 1 9 -7 0 -13 9 -13 21 0 13 4 18 13 13 10 -6 10 -4 0 7 -17
18 -17 83 0 73 10 -6 10 -4 0 7 -17 18 -17 83 0 73 10 -6 10 -4 0 7 -18 18
-18 83 0 73 9 -6 9 -5 1 7 -17 20 -18 189 -2 189 9 0 10 2 2 8 -17 10 -18 232
-1 232 8 0 9 2 1 8 -17 10 -18 224 -1 234 9 6 9 8 0 8 -17 0 -17 478 0 499 8
10 8 13 1 8 -16 -9 -16 612 0 632 8 11 8 13 0 8 -16 -9 -16 293 -1 312 8 10 8
13 1 8 -16 -9 -16 293 -1 312 9 12 9 13 0 7 -9 -5 -13 0 -13 16 0 13 6 30 13
37 10 11 10 13 0 7 -10 -5 -13 5 -13 38 l0 46 -315 0 c-293 0 -315 -1 -315
-17z m150 -3075 c0 -9 4 -8 10 2 6 9 10 10 10 3 0 -17 -17 -25 -25 -13 -5 8
-12 7 -23 -2 -15 -12 -16 -11 -3 5 16 20 31 22 31 5z"/>
<path d="M2149 3923 c-13 -16 -12 -17 4 -4 16 13 21 21 13 21 -2 0 -10 -8 -17
-17z"/>
<path d="M2156 3853 c-6 -14 -5 -15 5 -6 7 7 10 15 7 18 -3 3 -9 -2 -12 -12z"/>
<path d="M322 3821 c-11 -6 -10 -10 0 -19 11 -8 14 -7 14 9 0 10 0 19 -1 19 0
0 -6 -4 -13 -9z"/>
<path d="M315 3729 c-4 -6 -5 -12 -2 -15 2 -3 7 2 10 11 7 17 1 20 -8 4z"/>
<path d="M321 3692 c-7 -13 -6 -19 2 -19 7 0 13 9 13 19 0 10 -1 18 -3 18 -1
0 -7 -8 -12 -18z"/>
<path d="M2156 3693 c-6 -14 -5 -15 5 -6 7 7 10 15 7 18 -3 3 -9 -2 -12 -12z"/>
<path d="M322 3581 c-11 -6 -10 -10 0 -19 11 -8 14 -7 14 9 0 10 0 19 -1 19 0
0 -6 -4 -13 -9z"/>
<path d="M2130 3499 c0 -5 5 -7 10 -4 6 3 10 8 10 11 0 2 -4 4 -10 4 -5 0 -10
-5 -10 -11z"/>
<path d="M315 3489 c-4 -6 -5 -12 -2 -15 2 -3 7 2 10 11 7 17 1 20 -8 4z"/>
<path d="M324 3459 c-3 -6 -2 -15 3 -20 5 -5 9 -1 9 11 0 23 -2 24 -12 9z"/>
<path d="M2155 3260 c3 -5 8 -10 11 -10 2 0 4 5 4 10 0 6 -5 10 -11 10 -5 0
-7 -4 -4 -10z"/>
<path d="M300 3066 c0 -2 8 -10 18 -17 15 -13 16 -12 3 4 -13 16 -21 21 -21
13z"/>
<path d="M2156 3053 c-6 -14 -5 -15 5 -6 7 7 10 15 7 18 -3 3 -9 -2 -12 -12z"/>
<path d="M310 2999 c0 -5 5 -7 10 -4 6 3 10 8 10 11 0 2 -4 4 -10 4 -5 0 -10
-5 -10 -11z"/>
<path d="M2153 2985 c0 -8 4 -12 9 -9 5 3 6 10 3 15 -9 13 -12 11 -12 -6z"/>
<path d="M2155 2840 c3 -5 8 -10 11 -10 2 0 4 5 4 10 0 6 -5 10 -11 10 -5 0
-7 -4 -4 -10z"/>
<path d="M308 2818 c5 -5 16 -8 23 -6 8 3 3 7 -10 11 -17 4 -21 3 -13 -5z"/>
<path d="M310 2759 c0 -5 5 -7 10 -4 6 3 10 8 10 11 0 2 -4 4 -10 4 -5 0 -10
-5 -10 -11z"/>
<path d="M2153 2725 c0 -8 4 -12 9 -9 4 3 8 9 8 15 0 5 -4 9 -8 9 -5 0 -9 -7
-9 -15z"/>
<path d="M2130 2659 c0 -5 5 -7 10 -4 6 3 10 8 10 11 0 2 -4 4 -10 4 -5 0 -10
-5 -10 -11z"/>
<path d="M318 2613 c7 -3 16 -2 19 1 4 3 -2 6 -13 5 -11 0 -14 -3 -6 -6z"/>
<path d="M2156 2607 c3 -10 9 -15 12 -12 3 3 0 11 -7 18 -10 9 -11 8 -5 -6z"/>
<path d="M1847 2599 c7 -7 15 -10 18 -7 3 3 -2 9 -12 12 -14 6 -15 5 -6 -5z"/>
<path d="M300 2585 c0 -2 6 -8 13 -14 10 -8 14 -7 14 2 0 8 -6 14 -14 14 -7 0
-13 -1 -13 -2z"/>
<path d="M2155 2550 c3 -5 8 -10 11 -10 2 0 4 5 4 10 0 6 -5 10 -11 10 -5 0
-7 -4 -4 -10z"/>
<path d="M1820 2540 c-9 -6 -10 -10 -3 -10 6 0 15 5 18 10 8 12 4 12 -15 0z"/>
<path d="M2965 2539 c-4 -6 -5 -12 -2 -15 2 -3 7 2 10 11 7 17 1 20 -8 4z"/>
<path d="M1776 2525 c4 -8 8 -15 10 -15 2 0 4 7 4 15 0 8 -4 15 -10 15 -5 0
-7 -7 -4 -15z"/>
<path d="M1753 2504 c0 -23 1 -24 9 -10 7 12 7 21 0 28 -6 6 -9 0 -9 -18z"/>
<path d="M2154 2490 c0 -13 4 -16 10 -10 7 7 7 13 0 20 -6 6 -10 3 -10 -10z"/>
<path d="M1710 2478 c0 -4 4 -8 9 -8 6 0 12 4 15 8 3 5 -1 9 -9 9 -8 0 -15 -4
-15 -9z"/>
<path d="M1666 2447 c3 -10 9 -15 12 -12 3 3 0 11 -7 18 -10 9 -11 8 -5 -6z"/>
<path d="M2155 2370 c3 -5 8 -10 11 -10 2 0 4 5 4 10 0 6 -5 10 -11 10 -5 0
-7 -4 -4 -10z"/>
<path d="M1006 2335 c-19 -14 -11 -21 18 -16 5 1 5 -6 2 -16 -6 -14 -4 -15 5
-6 6 6 19 9 28 7 9 -3 4 2 -11 11 -32 18 -39 31 -9 15 14 -7 22 -7 27 2 4 6 3
8 -4 4 -6 -3 -13 -2 -17 4 -8 13 -16 12 -39 -5z"/>
<path d="M1015 2261 c-3 -5 -2 -12 3 -15 5 -3 9 1 9 9 0 17 -3 19 -12 6z"/>
<path d="M1076 2247 c3 -10 9 -15 12 -12 3 3 0 11 -7 18 -10 9 -11 8 -5 -6z"/>
<path d="M2155 2210 c3 -5 8 -10 11 -10 2 0 4 5 4 10 0 6 -5 10 -11 10 -5 0
-7 -4 -4 -10z"/>
<path d="M1035 2169 c-4 -6 -5 -12 -2 -15 2 -3 7 2 10 11 7 17 1 20 -8 4z"/>
<path d="M1070 2139 c0 -5 5 -7 10 -4 6 3 10 8 10 11 0 2 -4 4 -10 4 -5 0 -10
-5 -10 -11z"/>
<path d="M1100 2139 c0 -5 5 -7 10 -4 6 3 10 8 10 11 0 2 -4 4 -10 4 -5 0 -10
-5 -10 -11z"/>
<path d="M306 2098 c3 -5 10 -6 15 -3 13 9 11 12 -6 12 -8 0 -12 -4 -9 -9z"/>
<path d="M1108 2093 c6 -2 9 -10 6 -15 -4 -7 -2 -8 5 -4 13 9 5 26 -12 25 -9
0 -8 -2 1 -6z"/>
<path d="M2155 2070 c3 -5 8 -10 11 -10 2 0 4 5 4 10 0 6 -5 10 -11 10 -5 0
-7 -4 -4 -10z"/>
<path d="M1126 2055 c-9 -26 -7 -32 5 -12 6 10 9 21 6 23 -2 3 -7 -2 -11 -11z"/>
<path d="M310 2041 c0 -6 4 -13 10 -16 6 -3 7 1 4 9 -7 18 -14 21 -14 7z"/>
<path d="M2154 2010 c0 -13 4 -16 10 -10 7 7 7 13 0 20 -6 6 -10 3 -10 -10z"/>
<path d="M1136 1937 c3 -10 9 -15 12 -12 3 3 0 11 -7 18 -10 9 -11 8 -5 -6z"/>
<path d="M1157 1916 c-5 -12 -3 -15 5 -10 8 5 9 1 4 -12 -5 -14 -4 -16 4 -7 8
7 9 17 3 28 -9 16 -10 16 -16 1z"/>
<path d="M2130 1899 c0 -5 5 -7 10 -4 6 3 10 8 10 11 0 2 -4 4 -10 4 -5 0 -10
-5 -10 -11z"/>
<path d="M2958 1843 c7 -3 16 -2 19 1 4 3 -2 6 -13 5 -11 0 -14 -3 -6 -6z"/>
<path d="M1190 1780 c0 -5 5 -10 11 -10 5 0 7 5 4 10 -3 6 -8 10 -11 10 -2 0
-4 -4 -4 -10z"/>
<path d="M2153 1765 c0 -8 4 -12 9 -9 4 3 8 9 8 15 0 5 -4 9 -8 9 -5 0 -9 -7
-9 -15z"/>
<path d="M1193 1715 c0 -8 4 -15 9 -15 4 0 8 4 8 9 0 6 -4 12 -8 15 -5 3 -9
-1 -9 -9z"/>
<path d="M2130 1699 c0 -5 5 -7 10 -4 6 3 10 8 10 11 0 2 -4 4 -10 4 -5 0 -10
-5 -10 -11z"/>
<path d="M2955 1701 c-3 -5 -2 -12 3 -15 5 -3 9 1 9 9 0 17 -3 19 -12 6z"/>
<path d="M1200 1660 c-9 -6 -10 -10 -3 -10 6 0 15 5 18 10 8 12 4 12 -15 0z"/>
<path d="M1226 1643 c-6 -14 -5 -15 5 -6 7 7 10 15 7 18 -3 3 -9 -2 -12 -12z"/>
<path d="M2156 1647 c3 -10 9 -15 12 -12 3 3 0 11 -7 18 -10 9 -11 8 -5 -6z"/>
<path d="M314 1590 c0 -13 4 -16 10 -10 7 7 7 13 0 20 -6 6 -10 3 -10 -10z"/>
<path d="M2155 1590 c3 -5 8 -10 11 -10 2 0 4 5 4 10 0 6 -5 10 -11 10 -5 0
-7 -4 -4 -10z"/>
<path d="M2974 1578 c-3 -5 0 -7 8 -6 7 2 13 -4 12 -13 -1 -9 4 -16 11 -16 6
0 12 6 12 14 0 7 -4 13 -9 13 -5 0 -7 4 -4 8 3 5 -2 9 -10 9 -8 0 -17 -4 -20
-9z"/>
<path d="M2153 1525 c0 -8 4 -12 9 -9 4 3 8 9 8 15 0 5 -4 9 -8 9 -5 0 -9 -7
-9 -15z"/>
<path d="M3009 1517 c6 -8 7 -18 3 -22 -4 -5 -2 -5 5 -1 14 8 6 36 -9 36 -7 0
-6 -5 1 -13z"/>
<path d="M1250 1499 c0 -5 5 -7 10 -4 6 3 10 8 10 11 0 2 -4 4 -10 4 -5 0 -10
-5 -10 -11z"/>
<path d="M1265 1479 c-4 -6 -5 -12 -2 -15 2 -3 7 2 10 11 7 17 1 20 -8 4z"/>
<path d="M3020 1460 c-12 -7 -10 -9 7 -7 12 0 19 5 17 9 -6 10 -6 10 -24 -2z"/>
<path d="M1275 1449 c-4 -6 -5 -12 -2 -15 2 -3 7 2 10 11 7 17 1 20 -8 4z"/>
<path d="M290 1419 c0 -5 5 -7 10 -4 6 3 10 8 10 11 0 2 -4 4 -10 4 -5 0 -10
-5 -10 -11z"/>
<path d="M2155 1410 c3 -5 8 -10 11 -10 2 0 4 5 4 10 0 6 -5 10 -11 10 -5 0
-7 -4 -4 -10z"/>
<path d="M996 1393 c-6 -14 -5 -15 5 -6 7 7 10 15 7 18 -3 3 -9 -2 -12 -12z"/>
<path d="M3040 1396 c0 -2 7 -7 16 -10 8 -3 12 -2 9 4 -6 10 -25 14 -25 6z"/>
<path d="M4690 1355 c0 -8 2 -15 4 -15 2 0 6 7 10 15 3 8 1 15 -4 15 -6 0 -10
-7 -10 -15z"/>
<path d="M3050 1319 c0 -5 5 -7 10 -4 6 3 10 8 10 11 0 2 -4 4 -10 4 -5 0 -10
-5 -10 -11z"/>
<path d="M4675 1320 c3 -5 8 -10 11 -10 2 0 4 5 4 10 0 6 -5 10 -11 10 -5 0
-7 -4 -4 -10z"/>
<path d="M2153 1295 c0 -8 4 -12 9 -9 5 3 6 10 3 15 -9 13 -12 11 -12 -6z"/>
<path d="M3074 1289 c0 -10 4 -19 8 -19 4 0 8 6 8 14 0 8 -4 17 -8 20 -4 2 -8
-4 -8 -15z"/>
<path d="M290 1259 c0 -5 5 -7 10 -4 6 3 10 8 10 11 0 2 -4 4 -10 4 -5 0 -10
-5 -10 -11z"/>
<path d="M1320 1251 c0 -6 4 -13 10 -16 6 -3 7 1 4 9 -7 18 -14 21 -14 7z"/>
<path d="M2155 1250 c3 -5 8 -10 11 -10 2 0 4 5 4 10 0 6 -5 10 -11 10 -5 0
-7 -4 -4 -10z"/>
<path d="M1322 1217 c10 -8 15 -17 11 -20 -3 -4 -1 -7 5 -7 20 0 13 19 -10 30
-21 10 -21 10 -6 -3z"/>
<path d="M3130 1212 c0 -8 9 -16 20 -19 22 -6 22 -30 1 -25 -7 1 -10 -2 -6 -8
5 -8 11 -7 21 1 25 21 28 0 3 -21 l-24 -21 26 15 c30 19 47 10 21 -11 -16 -12
-15 -13 3 -6 18 6 18 5 6 -10 -7 -9 -10 -17 -6 -17 4 0 14 8 22 18 13 15 14
15 9 0 -3 -12 -1 -15 9 -12 10 4 3 20 -28 58 -23 29 -46 51 -51 48 -4 -2 -12
2 -17 9 -7 11 -9 12 -9 1z"/>
<path d="M2156 1163 c-6 -14 -5 -15 5 -6 7 7 10 15 7 18 -3 3 -9 -2 -12 -12z"/>
<path d="M1335 1150 c-3 -6 1 -7 9 -4 18 7 21 14 7 14 -6 0 -13 -4 -16 -10z"/>
<path d="M1350 1130 c-9 -6 -10 -10 -3 -10 6 0 15 5 18 10 8 12 4 12 -15 0z"/>
<path d="M4522 1107 c-24 -26 -28 -37 -11 -37 5 0 8 4 4 9 -3 5 5 17 17 25 12
9 19 18 17 21 -3 3 -15 -5 -27 -18z"/>
<path d="M1361 1093 c7 -12 15 -20 18 -17 3 2 -3 12 -13 22 -17 16 -18 16 -5
-5z"/>
<path d="M2130 1099 c0 -5 5 -7 10 -4 6 3 10 8 10 11 0 2 -4 4 -10 4 -5 0 -10
-5 -10 -11z"/>
<path d="M3240 1075 c0 -9 -6 -12 -17 -8 -10 3 -15 3 -12 -1 4 -4 15 -8 27
-11 15 -3 19 1 15 16 -6 23 -13 25 -13 4z"/>
<path d="M1362 1057 c10 -8 15 -17 11 -20 -3 -4 -1 -7 5 -7 20 0 13 19 -10 30
-21 10 -21 10 -6 -3z"/>
<path d="M313 1025 c0 -8 4 -12 9 -9 4 3 8 9 8 15 0 5 -4 9 -8 9 -5 0 -9 -7
-9 -15z"/>
<path d="M1374 1001 c0 -11 5 -17 13 -14 10 4 11 9 2 19 -15 18 -15 18 -15 -5z"/>
<path d="M4415 1009 c-10 -15 3 -25 16 -12 7 7 7 13 1 17 -6 3 -14 1 -17 -5z"/>
<path d="M3403 983 c-7 -2 -13 -9 -13 -14 0 -6 5 -7 10 -4 6 3 10 -1 10 -10 0
-11 5 -15 15 -12 8 4 17 2 20 -4 4 -5 10 -7 15 -4 5 3 16 -2 24 -11 13 -13 20
-14 31 -4 18 15 20 -1 3 -18 -8 -8 -8 -12 -1 -12 6 0 14 8 17 17 8 19 -8 40
-19 24 -4 -8 -17 -4 -38 11 -18 13 -35 24 -39 24 -5 1 -13 2 -19 3 -5 0 -7 6
-4 11 7 11 6 11 -12 3z"/>
<path d="M4360 975 c-7 -8 -17 -12 -24 -8 -6 4 -5 -1 3 -10 7 -9 19 -17 25
-16 6 0 5 3 -2 6 -10 4 -9 9 4 24 9 10 15 19 12 19 -3 0 -11 -7 -18 -15z"/>
<path d="M320 971 c0 -6 4 -13 10 -16 6 -3 7 1 4 9 -7 18 -14 21 -14 7z"/>
<path d="M1380 960 c0 -5 5 -10 11 -10 5 0 7 5 4 10 -3 6 -8 10 -11 10 -2 0
-4 -4 -4 -10z"/>
<path d="M439 933 c-9 -11 -10 -14 -1 -9 11 7 17 -5 13 -27 -1 -5 3 -6 8 -2 6
3 8 12 4 20 -3 11 -1 13 10 9 8 -3 18 0 23 7 4 8 3 10 -5 5 -6 -4 -18 -3 -25
3 -10 8 -17 7 -27 -6z"/>
<path d="M554 928 c-15 -19 -16 -20 -1 -9 14 11 17 11 18 0 1 -8 0 -18 -1 -24
-1 -5 2 -6 7 -2 4 5 8 14 8 20 0 5 6 12 14 15 8 3 11 0 7 -6 -3 -5 1 -13 9
-16 13 -5 14 -2 5 15 -8 14 -17 18 -32 13 -14 -4 -18 -2 -14 5 12 19 0 12 -20
-11z"/>
<path d="M635 940 c-6 -9 1 -14 18 -11 4 0 7 -3 7 -8 0 -5 7 -12 16 -15 14 -5
15 -4 4 9 -14 16 0 21 16 5 6 -6 14 -2 23 13 11 18 11 20 0 10 -15 -15 -33
-18 -25 -5 3 5 -1 9 -9 9 -8 0 -15 -5 -15 -10 0 -5 -6 -4 -14 2 -10 8 -16 9
-21 1z"/>
<path d="M895 924 c0 -12 4 -26 9 -31 5 -4 6 -3 3 4 -9 15 2 45 14 37 5 -3 9
-1 9 5 0 5 -8 9 -18 8 -12 0 -18 -9 -17 -23z"/>
<path d="M1455 930 c10 -11 24 -16 33 -13 10 4 13 2 8 -5 -4 -8 -2 -10 8 -6 8
3 17 13 21 22 5 13 4 14 -6 5 -9 -9 -17 -9 -33 -1 -36 20 -50 19 -31 -2z"/>
<path d="M4259 934 c-7 -8 -6 -15 2 -20 7 -4 15 -2 17 4 2 7 7 10 11 8 4 -3 8
1 8 8 0 16 -24 17 -38 0z"/>
<path d="M523 933 c-15 -5 -17 -23 -4 -23 5 0 11 7 15 15 3 8 4 15 3 14 -1 0
-8 -3 -14 -6z"/>
<path d="M735 929 c-10 -15 3 -25 16 -12 7 7 7 13 1 17 -6 3 -14 1 -17 -5z"/>
<path d="M774 929 c-2 -3 7 -6 19 -5 12 1 25 -3 29 -9 5 -6 8 -3 8 6 0 12 -8
16 -26 15 -14 0 -28 -4 -30 -7z"/>
<path d="M1636 931 c-4 -5 -2 -12 4 -16 5 -3 10 -3 10 2 0 4 5 1 10 -7 5 -8
10 -10 10 -4 0 17 -27 37 -34 25z"/>
<path d="M2181 924 c0 -11 3 -14 6 -6 3 7 2 16 -1 19 -3 4 -6 -2 -5 -13z"/>
<path d="M2478 933 c6 -3 9 -10 5 -16 -11 -18 -12 -38 -2 -31 5 3 7 10 4 15
-4 5 -2 9 3 9 21 0 19 26 -2 27 -11 0 -15 -1 -8 -4z"/>
<path d="M2635 911 c-1 -16 3 -27 7 -25 5 3 6 10 3 15 -4 5 -2 9 4 9 6 0 8 7
5 15 -10 24 -19 17 -19 -14z"/>
<path d="M2686 925 c-15 -12 -15 -13 0 -19 9 -4 19 -4 22 -1 3 3 0 5 -7 5 -7
0 -10 4 -6 10 3 5 12 7 20 3 8 -3 15 -1 15 4 0 13 -24 12 -44 -2z"/>
<path d="M3416 922 c-2 -4 4 -8 14 -8 10 0 16 4 14 8 -3 4 -9 8 -14 8 -5 0
-11 -4 -14 -8z"/>
<path d="M1433 905 c0 -8 4 -12 9 -9 5 3 6 10 3 15 -9 13 -12 11 -12 -6z"/>
<path d="M2226 912 c-3 -5 1 -9 9 -9 8 0 12 4 9 9 -3 4 -7 8 -9 8 -2 0 -6 -4
-9 -8z"/>
<path d="M1615 900 c3 -5 8 -10 11 -10 2 0 4 5 4 10 0 6 -5 10 -11 10 -5 0 -7
-4 -4 -10z"/>
<path d="M2727 899 c7 -7 15 -10 18 -7 3 3 -2 9 -12 12 -14 6 -15 5 -6 -5z"/>
<path d="M3540 891 c0 -6 4 -13 10 -16 6 -3 7 1 4 9 -7 18 -14 21 -14 7z"/>
<path d="M2436 878 c3 -5 10 -6 15 -3 13 9 11 12 -6 12 -8 0 -12 -4 -9 -9z"/>
<path d="M2596 878 c3 -5 10 -6 15 -3 13 9 11 12 -6 12 -8 0 -12 -4 -9 -9z"/>
<path d="M3590 869 c0 -5 5 -7 10 -4 6 3 10 8 10 11 0 2 -4 4 -10 4 -5 0 -10
-5 -10 -11z"/>
<path d="M3868 869 c6 -9 9 -19 5 -23 -4 -4 0 -4 9 -1 9 4 19 14 22 22 5 12 3
13 -7 5 -10 -9 -17 -8 -27 1 -12 10 -12 9 -2 -4z"/>
<path d="M4113 845 c0 -8 4 -12 9 -9 5 3 6 10 3 15 -9 13 -12 11 -12 -6z"/>
<path d="M3930 839 c0 -5 5 -7 10 -4 6 3 10 8 10 11 0 2 -4 4 -10 4 -5 0 -10
-5 -10 -11z"/>
<path d="M3855 820 c-3 -5 -1 -10 4 -10 6 0 11 5 11 10 0 6 -2 10 -4 10 -3 0
-8 -4 -11 -10z"/>
</g>
</svg>
